<?xml version="1.0" encoding="UTF-8" standalone="no"?>
<!DOCTYPE svg PUBLIC "-//W3C//DTD SVG 1.1//EN" "http://www.w3.org/Graphics/SVG/1.1/DTD/svg11.dtd">
<svg width="100%" height="100%" viewBox="0 0 1632 1411" version="1.1" xmlns="http://www.w3.org/2000/svg" xmlns:xlink="http://www.w3.org/1999/xlink" xml:space="preserve" xmlns:serif="http://www.serif.com/" style="fill-rule:evenodd;clip-rule:evenodd;stroke-linejoin:round;stroke-miterlimit:2;" fill="#003744">
    <g transform="matrix(1,0,0,1,-62.500833,-62.4975)">
        <g transform="matrix(4.166667,0,0,4.166667,0,0)">
            <g id="Layer-1" serif:id="Layer 1">
                <g transform="matrix(1,0,0,1,55.0802,250.0483)">
                    <path d="M0,19.406L0,10.67C-9.527,10.404 -19.573,10.404 -29.188,10.67L-29.188,19.406C-29.188,28.759 -29.1,34.003 -28.759,40.298L-40.08,40.298C-39.739,34.003 -39.569,28.759 -39.569,19.406L-39.569,-0.085C-39.569,-9.353 -39.739,-14.597 -40.08,-20.892L-28.759,-20.892C-29.1,-14.597 -29.188,-9.353 -29.188,-0.085L-29.188,5.764C-19.573,5.945 -9.527,5.945 0,5.764L0,-0.085C0,-9.353 -0.171,-14.597 -0.512,-20.892L10.81,-20.892C10.468,-14.597 10.38,-9.353 10.38,0L10.38,19.406C10.38,28.759 10.468,34.003 10.81,40.298L-0.512,40.298C-0.171,34.003 0,28.759 0,19.406" style="fill-rule:nonzero;"/>
                </g>
                <g transform="matrix(1,0,0,1,104.882,229.156)">
                    <path d="M0,62.411C-15.573,62.411 -24.677,52.358 -24.677,35.924L-24.677,20.808C-24.677,11.358 -24.76,6.465 -25.189,0L-13.868,0C-14.209,6.295 -14.297,11.54 -14.297,20.808L-14.297,37.157C-14.297,48.684 -7.569,55.946 3.064,55.946C13.191,55.946 19.231,49.651 20.167,39.513C20.508,36.975 20.596,33.652 20.596,30.764C20.596,22.028 19.914,11.008 18.72,0L25.189,0L25.107,35.223C25.019,52.358 15.662,62.411 0,62.411" style="fill-rule:nonzero;"/>
                </g>
                <g transform="matrix(1,0,0,1,147.197,290.431)">
                    <path d="M0,-61.275L8.851,-61.275L29.612,-11.89L49.525,-61.275L58.377,-61.275L64.84,-0.084L53.613,-0.084C53.354,-8.217 52.76,-15.382 51.737,-25.52L49.443,-47.983L29.188,0L23.66,0L3.064,-49.034C1.194,-30.68 0.259,-15.902 0,-0.084L-6.463,-0.084L0,-61.275Z" style="fill-rule:nonzero;"/>
                </g>
                <g transform="matrix(1,0,0,1,256.1015,256.5126)">
                    <path d="M0,6.477L-9.022,-17.919C-12.68,-9.002 -15.914,-1.136 -18.89,6.477C-12.85,6.562 -6.04,6.562 0,6.477M-35.481,33.834L-9.445,-27.357L-2.041,-27.357L21.102,33.834L9.445,33.834C6.981,25.968 4.423,18.536 1.617,10.839C-5.528,10.755 -13.444,10.755 -20.59,10.839C-23.401,18.186 -26.036,25.436 -28.847,33.834L-35.481,33.834Z" style="fill-rule:nonzero;"/>
                </g>
                <g transform="matrix(1,0,0,1,285.8955,290.516)">
                    <path d="M0,-61.36L8.169,-61.36L43.997,-12.579C43.909,-31.466 43.315,-42.474 41.698,-61.36L48.42,-61.36L48.42,0L41.186,0L4.429,-50.171C4.511,-30.414 5.111,-19.14 6.722,-0.169L0,-0.169L0,-61.36Z" style="fill-rule:nonzero;"/>
                </g>
                <g transform="matrix(1,0,0,1,375.707,287.3735)">
                    <path d="M0,-55.245C-11.827,-55.245 -19.825,-44.237 -19.825,-27.622C-19.825,-11.008 -11.827,0 0,0C11.915,0 19.914,-11.008 19.914,-27.622C19.914,-44.237 11.915,-55.245 0,-55.245M0,4.29C-17.779,4.29 -30.8,-9.268 -30.8,-27.622C-30.8,-45.977 -17.779,-59.535 0,-59.535C17.873,-59.535 30.894,-45.977 30.894,-27.622C30.894,-9.268 17.873,4.29 0,4.29" style="fill-rule:nonzero;"/>
                </g>
                <g transform="matrix(1,0,0,1,156.9334,335.8272)">
                    <path d="M0,8.284L0,4.553C-4.169,4.44 -8.562,4.44 -12.768,4.553L-12.768,8.284C-12.768,12.275 -12.731,14.513 -12.581,17.2L-17.533,17.2C-17.383,14.513 -17.31,12.275 -17.31,8.284L-17.31,-0.036C-17.31,-3.99 -17.383,-6.229 -17.533,-8.916L-12.581,-8.916C-12.731,-6.229 -12.768,-3.99 -12.768,-0.036L-12.768,2.464C-8.562,2.538 -4.169,2.538 0,2.464L0,-0.036C0,-3.99 -0.073,-6.229 -0.223,-8.916L4.728,-8.916C4.579,-6.229 4.542,-3.99 4.542,0L4.542,8.284C4.542,12.275 4.579,14.513 4.728,17.2L-0.223,17.2C-0.073,14.513 0,12.275 0,8.284" style="fill-rule:nonzero;"/>
                </g>
                <g transform="matrix(1,0,0,1,187.3022,351.76)">
                    <path d="M0,-23.581C-5.174,-23.581 -8.672,-18.879 -8.672,-11.792C-8.672,-4.702 -5.174,0 0,0C5.211,0 8.711,-4.702 8.711,-11.792C8.711,-18.879 5.211,-23.581 0,-23.581M0,1.826C-7.78,1.826 -13.476,-3.957 -13.476,-11.792C-13.476,-19.624 -7.78,-25.407 0,-25.407C7.819,-25.407 13.513,-19.624 13.513,-11.792C13.513,-3.957 7.819,1.826 0,1.826" style="fill-rule:nonzero;"/>
                </g>
                <g transform="matrix(1,0,0,1,217.1881,335.8272)">
                    <path d="M0,8.284L0,-7.05C-3.464,-7.013 -5.807,-6.751 -7.929,-6.229L-7.929,-8.916L12.471,-8.916L12.471,-6.229C10.312,-6.751 8.04,-7.013 4.542,-7.05L4.542,8.284C4.542,12.275 4.579,14.513 4.728,17.2L-0.223,17.2C-0.076,14.513 0,12.275 0,8.284" style="fill-rule:nonzero;"/>
                </g>
                <g transform="matrix(1,0,0,1,240.5144,335.8272)">
                    <path d="M0,8.284L0,0C0,-3.954 -0.076,-6.155 -0.223,-8.916L14.295,-8.916L14.295,-6.341C12.209,-6.864 9.64,-7.126 5.956,-7.126L4.542,-7.126L4.542,2.611L6.738,2.611C9.64,2.611 11.689,2.501 13.586,2.202L13.586,4.776C11.613,4.516 9.603,4.403 6.738,4.403L4.542,4.403L4.542,15.41L6.106,15.41C9.79,15.41 12.395,15.111 14.518,14.589L14.518,17.2L-0.223,17.2C-0.076,14.476 0,12.238 0,8.284" style="fill-rule:nonzero;"/>
                </g>
                <g transform="matrix(1,0,0,1,267.1546,335.8272)">
                    <path d="M0,8.284L0,-0.036C0,-3.99 -0.073,-6.229 -0.223,-8.916L4.728,-8.916C4.579,-6.229 4.542,-3.99 4.542,0L4.542,15.41L6.292,15.41C9.976,15.41 12.581,15.075 14.704,14.513L14.704,17.2L-0.223,17.2C-0.073,14.476 0,12.238 0,8.284" style="fill-rule:nonzero;"/>
                </g>
                <g transform="matrix(1,0,0,1,186.5347,98.8344)">
                    <path d="M0,-7.359C7.033,-12.634 15.427,-15.422 24.278,-15.422C33.139,-15.422 41.527,-12.634 48.535,-7.358L49.375,-6.725L48.533,-6.094C41.511,-0.836 33.115,1.943 24.253,1.943C15.407,1.943 7.02,-0.836 0,-6.094L-0.843,-6.726L0,-7.359ZM95.38,-35.42L95.38,-83.835L90.728,-83.835L90.728,-35.42C90.728,-27.948 89.461,-20.652 86.962,-13.735L86.378,-12.113L85.505,-13.603C83.984,-16.198 82.258,-18.687 80.375,-21.003L80.118,-21.32L80.229,-21.712C81.56,-26.439 82.236,-31.422 82.236,-36.523L82.236,-83.759L77.61,-83.759L77.61,-36.523C77.61,-33.419 77.314,-30.258 76.73,-27.125L76.442,-25.578L75.349,-26.725C73.598,-28.561 71.565,-30.417 69.132,-32.4L68.799,-32.67L68.844,-33.091C69.011,-34.746 69.093,-36.229 69.093,-37.627L69.093,-83.81L64.441,-83.81L64.441,-35.825L63.19,-36.638C51.63,-44.149 38.175,-48.119 24.278,-48.119C10.542,-48.119 -2.781,-44.234 -14.283,-36.878L-15.857,-36.056C-15.877,-36.47 -15.899,-36.882 -15.908,-37.301L-15.908,-83.81L-20.534,-83.81L-20.534,-37.627C-20.534,-36.07 -20.46,-34.577 -20.311,-33.069C-20.073,-30.827 -19.646,-28.577 -19.007,-26.19C-18.297,-23.517 -17.34,-20.96 -16.16,-18.586C-15.178,-16.603 -14.118,-14.77 -13.005,-13.139C-11.589,-11.059 -9.989,-9.085 -8.256,-7.279C-6.71,-5.705 -5.227,-4.366 -3.719,-3.183C4.19,3.076 14.124,6.524 24.253,6.524C34.512,6.524 44.203,3.167 52.279,-3.184L52.856,-3.637L53.366,-3.113C55.169,-1.26 56.803,0.798 58.226,3.005L58.609,3.599L58.057,4.045C48.521,11.748 36.516,15.989 24.253,15.989C12.008,15.989 0.013,11.748 -9.518,4.051C-11.316,2.634 -12.863,1.211 -14.225,-0.275C-16.002,-2.051 -17.71,-4.066 -19.3,-6.267C-20.616,-8.099 -21.793,-9.981 -22.896,-12.026C-24.305,-14.666 -25.454,-17.314 -26.31,-19.891C-27.104,-22.213 -27.722,-24.569 -28.199,-27.101C-28.765,-30.146 -29.052,-33.316 -29.052,-36.523L-29.052,-83.759L-33.705,-83.759L-33.705,-36.523C-33.705,-31.516 -33.029,-26.531 -31.691,-21.696C-31.08,-19.338 -30.293,-17.053 -29.28,-14.698C-28.226,-12.116 -26.962,-9.653 -25.411,-7.158C-24.219,-5.183 -22.955,-3.355 -21.546,-1.572C-19.915,0.484 -18.16,2.405 -16.31,4.153C-14.843,5.621 -13.216,7.04 -11.473,8.371L-11.161,8.637C-0.952,16.428 11.284,20.544 24.253,20.544C37.37,20.544 49.732,16.345 60.003,8.4L60.829,7.761L61.244,8.712C62.334,11.218 63.164,13.896 63.713,16.673L63.81,17.168L63.396,17.466C51.957,25.688 38.423,30.034 24.253,30.034C10.128,30.034 -3.397,25.688 -14.863,17.466C-16.874,16.021 -18.662,14.592 -20.331,13.097C-22.305,11.324 -24.266,9.336 -26.152,7.19C-27.715,5.435 -29.201,3.513 -30.693,1.323C-32.307,-0.99 -33.851,-3.578 -35.282,-6.368L-35.369,-6.564C-36.508,-8.802 -37.51,-11.151 -38.429,-13.735C-40.928,-20.648 -42.195,-27.943 -42.195,-35.42L-42.195,-83.759L-46.849,-83.759L-46.849,-35.42C-46.849,-25.588 -44.799,-16.043 -40.753,-7.049L-40.608,-6.726L-40.753,-6.403C-44.799,2.533 -46.849,12.061 -46.849,21.916L-46.849,76.476L-42.195,76.476L-42.195,21.916C-42.195,14.473 -40.928,7.194 -38.429,0.28L-37.849,-1.326L-36.973,0.145C-35.426,2.744 -33.699,5.237 -31.839,7.554L-31.587,7.868L-31.694,8.255C-33.029,13.078 -33.705,18.045 -33.705,23.019L-33.705,76.45L-29.052,76.45L-29.052,23.019C-29.052,19.817 -28.773,16.76 -28.199,13.672L-27.917,12.159L-26.826,13.26C-24.778,15.329 -22.684,17.224 -20.604,18.892L-20.268,19.161L-20.309,19.585C-20.481,21.302 -20.561,22.752 -20.561,24.148L-20.561,76.476L-15.908,76.476L-15.908,22.374L-14.658,23.183C-3.109,30.662 10.347,34.615 24.253,34.615C38.152,34.615 51.617,30.653 63.191,23.158L64.441,22.349L64.441,76.476L69.093,76.476L69.093,24.148C69.093,22.752 69.014,21.295 68.844,19.566C68.587,17.177 68.15,14.874 67.539,12.709C66.882,10.209 65.93,7.63 64.718,5.059C63.801,3.207 62.723,1.374 61.508,-0.394C60.159,-2.398 58.569,-4.344 56.773,-6.19C55.448,-7.613 53.937,-8.994 52.276,-10.297C44.401,-16.556 34.458,-20.003 24.278,-20.003C13.952,-20.003 4.272,-16.647 -3.717,-10.297L-4.294,-9.839L-4.808,-10.365C-6.639,-12.247 -8.238,-14.266 -9.698,-16.538C-9.854,-16.783 -10,-17.031 -10.15,-17.278L-8.806,-18.146C0.592,-25.469 12.304,-29.493 24.278,-29.493C36.546,-29.493 48.541,-25.26 58.056,-17.576C58.908,-16.89 59.707,-16.204 60.526,-15.475C61.3,-14.738 62.074,-14.001 62.791,-13.247C64.677,-11.308 66.28,-9.391 67.682,-7.392L67.829,-7.191C69.23,-5.282 70.441,-3.349 71.428,-1.456C72.837,1.159 73.985,3.809 74.838,6.405C75.048,6.994 75.23,7.585 75.41,8.194C75.957,9.987 76.401,11.823 76.729,13.645C77.314,16.752 77.61,19.906 77.61,23.019L77.61,76.45L82.236,76.45L82.236,23.019C82.236,17.942 81.56,12.959 80.222,8.187C79.624,5.806 78.817,3.47 77.811,1.219C76.768,-1.335 75.47,-3.878 73.948,-6.342C72.741,-8.313 71.439,-10.186 70.076,-11.911C68.543,-13.876 66.874,-15.735 65.114,-17.444L65.082,-17.444L64.846,-17.677C63.324,-19.178 61.74,-20.551 60.002,-21.879C49.723,-29.857 37.37,-34.074 24.278,-34.074C11.393,-34.074 -0.783,-29.981 -10.977,-22.232L-12.325,-21.33C-12.454,-21.608 -12.588,-21.886 -12.709,-22.164C-13.81,-24.686 -14.619,-27.307 -15.18,-30.181C-15.219,-30.385 -15.249,-30.597 -15.285,-30.804L-13.81,-31.712C-2.608,-39.453 10.533,-43.538 24.278,-43.538C38.468,-43.538 51.995,-39.192 63.39,-30.974C65.289,-29.635 67.132,-28.154 68.864,-26.576C70.98,-24.675 72.886,-22.74 74.684,-20.669C76.39,-18.754 77.92,-16.793 79.22,-14.858C80.935,-12.453 82.448,-9.907 83.841,-7.085C85.096,-4.641 86.147,-2.174 86.964,0.231C89.461,7.174 90.728,14.47 90.728,21.916L90.728,76.45L95.38,76.45L95.38,21.916C95.38,12.098 93.33,2.561 89.285,-6.43L89.14,-6.753L89.285,-7.076C93.33,-16.008 95.38,-25.545 95.38,-35.42" style="fill-rule:nonzero;"/>
                </g>
            </g>
        </g>
    </g>
</svg>
